<svg xmlns="http://www.w3.org/2000/svg" xmlns:xlink="http://www.w3.org/1999/xlink" width="100%" height="100%" viewBox="0 0 300 300" preserveAspectRatio="xMidYMid meet" fill="none">
    <defs>
        <filter id="bibo-blur" x="-50%" y="-50%" width="200%" height="200%" color-interpolation-filters="sRGB">
            <feGaussianBlur stdDeviation="15" result="out" />
        </filter>
        <filter id="bibo-blur-sm" x="-50%" y="-50%" width="200%" height="200%" color-interpolation-filters="sRGB">
            <feGaussianBlur stdDeviation="5" result="out" />
        </filter>
        <filter id="bibo-blur-lg" x="-50%" y="-50%" width="200%" height="200%" color-interpolation-filters="sRGB">
            <feGaussianBlur stdDeviation="32" result="out" />
        </filter>
        <path id="bibo-jitter-sm" d="M10.4485 2.98177C14.4091 4.48135 20 6.52342 20 2.98176C20 -0.548164 14.617 1.40118 10.4485 2.98177ZM10.4485 2.98177C10.4347 2.98703 10.4208 2.99226 10.4069 2.99751C6.23277 4.58084 1 6.5628 1 3.02114C1 -0.520506 6.48798 1.4822 10.4485 2.98177Z" />
        <path id="bibo-jitter-lg" d="M11.4431 4.92852C15.8206 9.82815 22 10.2396 22 4.92847C22 -0.382675 16.0504 -0.235806 11.4431 4.92852ZM11.4431 4.92852C11.4278 4.94569 11.4124 4.9628 11.3972 4.97994C6.78359 10.1532 1 10.4969 1 5.05714C1 -0.382663 7.06566 0.0289037 11.4431 4.92852Z" />
    </defs>
    <rect width="100%" height="100%" fill="#06080a" />
    <g filter="url(#bibo-blur)" shape-rendering="optimizeSpeed">
        <rect width="100%" height="100%" fill="#06080a" />
        <circle r="64" cx="150" cy="150" style="mix-blend-mode:lighten" fill="#d833ff" opacity="1">
            <animateMotion dur="5.2" repeatCount="indefinite" calcMode="linear">
                <mpath xlink:href="#bibo-jitter-lg" />
            </animateMotion>
        </circle>
        <circle r="64" cx="144" cy="108" style="mix-blend-mode:lighten" fill="#ff3357" opacity="1">
            <animateMotion dur="5.8" repeatCount="indefinite" calcMode="linear">
                <mpath xlink:href="#bibo-jitter-lg" />
            </animateMotion>
        </circle>
        <circle r="64" cx="173" cy="138" style="mix-blend-mode:lighten" fill="#ffdd33" opacity="1">
            <animateMotion dur="7.3" repeatCount="indefinite" calcMode="linear">
                <mpath xlink:href="#bibo-jitter-lg" />
            </animateMotion>
        </circle>
        <circle r="56" cx="158" cy="108" style="mix-blend-mode:lighten" fill="#ff336a" opacity="1">
            <animateMotion keyPoints="1;0" keyTimes="0;1" dur="7.3" repeatCount="indefinite" calcMode="linear">
                <mpath xlink:href="#bibo-jitter-lg" />
            </animateMotion>
        </circle>
        <circle r="48" cx="157" cy="177" style="mix-blend-mode:lighten" fill="#3383ff" opacity="1">
            <animateMotion dur="8.9" repeatCount="indefinite" calcMode="linear">
                <mpath xlink:href="#bibo-jitter-lg" />
            </animateMotion>
        </circle>
        <circle r="32" cx="136" cy="124" style="mix-blend-mode:lighten" fill="#33ff4d" opacity="1">
            <animateMotion keyPoints="1;0" keyTimes="0;1" dur="7.1" repeatCount="indefinite" calcMode="linear">
                <mpath xlink:href="#bibo-jitter-lg" />
            </animateMotion>
        </circle>
        <circle r="24" cx="131" cy="132" style="mix-blend-mode:lighten" fill="#eb33ff" opacity="1">
            <animateMotion keyPoints="1;0" keyTimes="0;1" dur="8.3" repeatCount="indefinite" calcMode="linear">
                <mpath xlink:href="#bibo-jitter-lg" />
            </animateMotion>
        </circle>
    </g>
    <g id="glints"></g>
    <g transform="translate(100,100) scale(0.5) rotate(-2)">
        <rect width="200" height="200" fill="#00000000" />
        <circle r="80" cx="100" cy="100" style="mix-blend-mode:lighten" fill="white" opacity="0.2" filter="url(#bibo-blur-lg)"></circle>
        <path d="M41 78.5C47 72.8333 62.6 65.6 77 82" stroke="black" stroke-width="10" stroke-linecap="round" />
        <path d="M161 78.5C155 72.8333 139.4 65.6 125 82" stroke="black" stroke-width="10" stroke-linecap="round" />
        <path d="M81 116.139C89.4596 132.216 112.476 131.735 121 116" stroke="black" stroke-width="10" stroke-linecap="round" />
        <animateMotion dur="11s" repeatCount="indefinite">
            <mpath href="#bibo-jitter-lg" />
        </animateMotion>
    </g>
</svg>